<?xml version="1.0" encoding="UTF-8"?>
<svg width="75px" height="33px" viewBox="0 0 75 33" version="1.1" xmlns="http://www.w3.org/2000/svg" xmlns:xlink="http://www.w3.org/1999/xlink">
    <!-- Generator: Sketch 44.1 (41455) - http://www.bohemiancoding.com/sketch -->
    <title>Logo_outline_75x33</title>
    <desc>Created with Sketch.</desc>
    <defs>
        <polygon id="path-1" points="36.1158995 0.0214500005 0 0.0214500005 0 30.2500007 72.2317766 30.2500007 72.2317766 0.0214500005 36.1158995 0.0214500005 72.231881 0.0214500005 72.231881 30.2500843 2.23532722e-05 30.2500843 2.23532722e-05 0.0214500005"></polygon>
    </defs>
    <g id="Page-1" stroke="none" stroke-width="1" fill="none" fill-rule="evenodd">
        <g id="Logo_outline_75x33">
            <g id="Meny_logo_ny_RGB_" transform="translate(1.100000, 1.100000)">
                <g id="Group-3">
                    <mask id="mask-2" fill="white">
                        <use xlink:href="#path-1"></use>
                    </mask>
                    <g id="Clip-2"></g>
                    <path d="M71.9760266,10.0658252 C71.9405516,10.0358502 71.9017766,10.0086252 71.8599766,9.98497522 L70.2542515,9.0838002 C59.5446513,3.07065007 48.058451,0.0214500005 36.1157508,0.0214500005 C24.1736005,0.0214500005 12.6879503,3.07065007 1.97725004,9.0843502 L0.372350008,9.98497522 C0.0346500008,10.1747252 -0.0959750021,10.5949252 0.0750750016,10.9425252 L9.3766752,29.8432756 C9.46522521,30.0234007 9.62362521,30.1589757 9.81502521,30.2178257 C10.0064252,30.2766757 10.2140502,30.2544007 10.3886752,30.1559507 L12.1789253,29.1467006 C19.5346254,24.9986005 28.2595506,22.6201255 36.1157508,22.6201255 C43.972501,22.6201255 52.6968761,24.9988755 60.0525763,29.1472506 L61.8436513,30.1559507 C61.9742763,30.2299257 62.1230513,30.2607257 62.2707263,30.2467007 C62.3196764,30.2420257 62.3686264,30.2324007 62.4164764,30.2178257 C62.6081514,30.1584257 62.7665514,30.0234007 62.8553764,29.8432756 L72.1569766,10.9425252 C72.3065766,10.6381002 72.2249016,10.2778502 71.9760266,10.0658252" id="Fill-1" stroke="#FFFFFF" stroke-width="1.37500003" fill="#CE0029"></path>
                </g>
                <path d="M53.5579012,8.44580018 C53.5056512,8.49447518 53.4734762,8.59347519 53.4899762,8.68202519 C53.4899762,8.68202519 54.7712012,15.9318503 54.7940262,16.0608253 C54.7481012,16.1821004 53.4622012,19.5761504 53.4622012,19.5761504 C53.4294762,19.6605754 53.4385512,19.7169504 53.4638512,19.7705754 C53.4899762,19.8244754 53.5469012,19.8690254 53.6085012,19.8910254 C54.5971262,20.2408254 55.6402012,20.6327004 56.3986512,20.9385005 C56.5226762,20.9882755 56.6640262,20.9291505 56.7143512,20.8048505 C56.7143512,20.8048505 58.0684513,17.4872504 58.1174013,17.3681754 C58.2227263,17.2884254 64.1223014,12.8460753 64.1223014,12.8460753 C64.1833514,12.8001503 64.2204764,12.7151753 64.2180014,12.6282753 C64.2147014,12.5441253 64.1577764,12.4701503 64.0821514,12.4333003 C63.1441264,11.9781753 62.1472513,11.5013252 61.2161013,11.1028502 C61.1278263,11.0649002 61.0263513,11.0825002 60.9559513,11.1465752 C60.9559513,11.1465752 57.9433263,13.9166503 57.3358512,14.4743503 C57.2739762,13.6532003 56.9610262,9.58292521 56.9610262,9.58292521 C56.9536012,9.48585021 56.8889762,9.4028002 56.7976762,9.3720002 C55.9405012,9.0788502 54.8482012,8.72740019 53.8001762,8.40730018 C53.7190512,8.38337518 53.6118012,8.39657518 53.5579012,8.44580018" id="Fill-4" fill="#FFFFFF"></path>
                <path d="M39.8032259,6.19657513 L38.9372508,16.6295254 C38.9312008,16.6947004 38.9529258,16.7587754 38.9952758,16.8082754 C39.0379008,16.8575004 39.0984008,16.8874754 39.1630258,16.8921504 C39.6055009,16.9204754 40.7811259,17.0060004 42.1588759,17.1806254 C42.2243259,17.1888754 42.2900509,17.1704504 42.3414759,17.1294754 C42.3923509,17.0879504 42.4250759,17.0282754 42.4311259,16.9631004 C42.4311259,16.9631004 42.7616759,13.5280753 42.8791009,12.3048753 C43.4546759,13.4843503 45.465201,17.6090754 45.465201,17.6090754 C45.497926,17.6767254 45.561176,17.7254004 45.635426,17.7408004 C46.441726,17.9027754 47.433101,18.1216754 48.428051,18.3570754 C48.4913011,18.3716504 48.5578511,18.3609254 48.6131261,18.3265504 C48.6675761,18.2927254 48.7066261,18.2377254 48.7212011,18.1744754 L51.0625511,7.91010017 C51.0925261,7.77947517 51.0108511,7.64967517 50.8816011,7.61997517 C49.9042511,7.39062516 48.6978261,7.12992515 47.734226,6.93907515 C47.603601,6.91295015 47.476551,6.99710015 47.449326,7.12745015 C47.449326,7.12745015 46.577026,11.2912252 46.340251,12.4214753 C45.846626,11.3206502 43.6504759,6.42207514 43.6504759,6.42207514 C43.6155509,6.34425014 43.5426759,6.29062514 43.4577009,6.28017514 C41.9826009,6.10060013 40.4841259,6.00077513 40.0606259,5.97437513 C39.9286259,5.96640013 39.8142259,6.06567513 39.8032259,6.19657513" id="Fill-5" fill="#FFFFFF"></path>
                <path d="M35.6364258,5.85970013 C35.6364258,5.85970013 33.8607507,5.89242513 33.8593757,5.89242513 C31.5557007,5.97547513 28.9484256,6.22435013 26.5171506,6.59230014 C26.3857006,6.61210014 26.2949506,6.73392515 26.3128256,6.86482515 L27.7156006,17.2843004 C27.7246756,17.3494754 27.7593256,17.4083254 27.8121256,17.4471004 C27.8646506,17.4861504 27.9312006,17.5018254 27.9958256,17.4908254 C30.8412507,17.0307504 33.6624757,16.7766504 36.2810258,16.7906754 C36.4144008,16.7912254 36.5235758,16.6845254 36.5249508,16.5503254 L36.5453008,14.6294503 C36.5458508,14.5645503 36.5211008,14.5026753 36.4760008,14.4562003 C36.4303508,14.4105503 36.3687508,14.3858003 36.3041258,14.3838753 C34.8675258,14.3379503 32.2514507,14.5040503 30.9424507,14.6401753 C30.9012007,14.3024753 30.7524257,13.0927503 30.7092507,12.7421253 C31.8133757,12.6230503 34.5081007,12.4803253 34.6280008,12.4822503 C34.7476258,12.4830753 34.8683508,12.3684003 34.8656008,12.2342003 L34.8298508,10.4648502 C34.8287508,10.3996752 34.8018008,10.3389002 34.7553258,10.2943502 C34.7088508,10.2498002 34.6453258,10.2275252 34.5820757,10.2264252 C33.8959507,10.2176252 31.7355507,10.3581502 30.4403007,10.4868502 L30.2051757,8.56240019 C31.4979507,8.43782518 32.8616757,8.34405018 33.9460007,8.30417518 C33.9372007,8.30417518 35.6518258,8.27420018 35.6518258,8.27420018 C35.7849258,8.27145018 35.8908008,8.16310018 35.8905258,8.03027517 L35.8839258,6.10142513 C35.8836508,6.03652513 35.8572508,5.97437513 35.8107758,5.92872513 C35.7640258,5.88307513 35.7013258,5.85832513 35.6364258,5.85970013" id="Fill-6" fill="#FFFFFF"></path>
                <path d="M22.0569255,7.45222516 C20.9178755,7.71677517 19.7430754,8.02395017 18.5644254,8.36577518 C18.4778004,8.39080018 18.4123504,8.46147518 18.3942004,8.55002519 C18.3942004,8.55002519 17.3989754,13.3815003 17.2557004,14.0767003 C16.7125754,13.6196503 12.9409503,10.4412002 12.9409503,10.4412002 C12.8719253,10.3831752 12.7765003,10.3683252 12.6931753,10.4018752 C11.4760252,10.8957752 10.3468752,11.3861002 9.3379002,11.8607503 C9.2182752,11.9168503 9.1654752,12.0582003 9.2188252,12.1783753 L13.4246753,21.7074005 C13.4508003,21.7673505 13.5000253,21.8138255 13.5605253,21.8372005 C13.6213003,21.8597505 13.6889503,21.8572755 13.7483503,21.8300505 C14.4212753,21.5228755 15.3340003,21.1455755 16.5382254,20.6794504 C16.5995504,20.6558004 16.6518004,20.6093254 16.6743504,20.5474504 C16.6966254,20.4853004 16.6991004,20.4151754 16.6735254,20.3571504 C16.6735254,20.3571504 15.3587503,17.2713754 14.8843753,16.1590004 C15.8804253,16.8575004 18.6975254,18.8347504 18.6975254,18.8347504 C18.7616004,18.8798504 18.8430004,18.8908504 18.9164254,18.8652754 C18.9901254,18.8399754 19.0473254,18.7800254 19.0696004,18.7057754 C19.0696004,18.7057754 20.0590504,15.4038503 20.4052754,14.2485753 C20.7275754,15.4068753 21.6386505,18.6813004 21.6386505,18.6813004 C21.6741255,18.8091754 21.8072255,18.8853504 21.9359255,18.8507004 C22.9506755,18.5740504 24.0603005,18.2919004 24.8319505,18.1109504 C24.8963005,18.0969254 24.9510255,18.0559504 24.9851255,18.0001254 C25.0189505,17.9440254 25.0283005,17.8769254 25.0123505,17.8134004 L22.3470505,7.62740017 C22.3137755,7.50007516 22.1850755,7.42197516 22.0569255,7.45222516" id="Fill-7" fill="#FFFFFF"></path>
            </g>
        </g>
    </g>
</svg>